<svg width="32" height="32" viewBox="0 0 32 32" fill="none" xmlns="http://www.w3.org/2000/svg">
<path d="M14.1634 18.5028C13.9287 18.7795 13.6999 19.0487 13.4716 19.3184C11.528 21.6108 9.58481 23.9038 7.64117 26.1962C6.87002 27.1059 6.09937 28.0162 5.32625 28.9244C5.29716 28.959 5.24638 28.9955 5.20545 28.9955C4.48214 29 3.75833 28.9985 3 28.9985C6.3957 24.9927 9.77463 21.0063 13.159 17.014C9.77562 12.0163 6.39471 7.02219 3.00148 2.01001C3.05818 2.00651 3.09565 2.0025 3.13313 2.0025C5.62603 2.002 8.11845 2.003 10.6114 2C10.6996 2 10.7465 2.03353 10.7933 2.10309C12.9761 5.33078 15.1608 8.55746 17.3451 11.7837C17.3776 11.8317 17.4111 11.8792 17.4526 11.9393C17.4856 11.9033 17.5147 11.8737 17.5418 11.8422C19.6762 9.3241 21.8107 6.80601 23.9447 4.28791C24.5699 3.55079 25.1941 2.81268 25.8217 2.07807C25.8543 2.03953 25.9159 2.005 25.9637 2.005C26.6545 2.0005 27.3458 2.0015 28.0366 2.002C28.0637 2.002 28.0913 2.00701 28.1396 2.01151C24.9076 5.82469 21.6874 9.62385 18.4609 13.431C21.97 18.6143 25.4776 23.7952 29 28.998H28.86C26.371 28.998 23.8816 28.9975 21.3926 29C21.3019 29 21.2516 28.9705 21.2008 28.8954C18.8809 25.4651 16.5591 22.0362 14.2373 18.6073C14.2151 18.5748 14.1915 18.5428 14.1629 18.5023L14.1634 18.5028ZM6.08359 3.73495C6.1112 3.77948 6.12501 3.8045 6.14128 3.82802C6.80987 4.79933 7.47895 5.77114 8.14803 6.74245C10.2529 9.7975 12.3578 12.8525 14.4621 15.9081C17.0699 19.6942 19.6782 23.4804 22.2845 27.2671C22.324 27.3241 22.3629 27.3481 22.4334 27.3481C23.5512 27.3456 24.669 27.3466 25.7872 27.3461C25.8173 27.3461 25.8474 27.3416 25.8937 27.3381C25.8558 27.2826 25.8272 27.241 25.7986 27.1995C23.2983 23.57 20.798 19.9405 18.2981 16.3104C15.4315 12.1485 12.5644 7.98649 9.69969 3.82302C9.65186 3.75346 9.60157 3.73294 9.52169 3.73294C8.41823 3.73545 7.31476 3.73445 6.21129 3.73445C6.17579 3.73445 6.14029 3.73445 6.0831 3.73445L6.08359 3.73495Z" fill="#9FA6B1"/>
</svg>
